<svg xmlns="http://www.w3.org/2000/svg" viewBox="0 0 100 100" preserveAspectRatio="xMidYMid" width="217" height="217" style="shape-rendering: auto; display: block; background: transparent;" xmlns:xlink="http://www.w3.org/1999/xlink"><g><g transform="rotate(0 50 50)">
  <rect fill="#9c21c8" height="4" width="2" ry="0.52" rx="0.52" y="32" x="49">
    <animate repeatCount="indefinite" begin="-0.8888888888888888s" dur="1s" keyTimes="0;1" values="1;0" attributeName="opacity"></animate>
  </rect>
</g><g transform="rotate(40 50 50)">
  <rect fill="#9c21c8" height="4" width="2" ry="0.52" rx="0.52" y="32" x="49">
    <animate repeatCount="indefinite" begin="-0.7777777777777778s" dur="1s" keyTimes="0;1" values="1;0" attributeName="opacity"></animate>
  </rect>
</g><g transform="rotate(80 50 50)">
  <rect fill="#9c21c8" height="4" width="2" ry="0.52" rx="0.52" y="32" x="49">
    <animate repeatCount="indefinite" begin="-0.6666666666666666s" dur="1s" keyTimes="0;1" values="1;0" attributeName="opacity"></animate>
  </rect>
</g><g transform="rotate(120 50 50)">
  <rect fill="#9c21c8" height="4" width="2" ry="0.52" rx="0.52" y="32" x="49">
    <animate repeatCount="indefinite" begin="-0.5555555555555556s" dur="1s" keyTimes="0;1" values="1;0" attributeName="opacity"></animate>
  </rect>
</g><g transform="rotate(160 50 50)">
  <rect fill="#9c21c8" height="4" width="2" ry="0.52" rx="0.52" y="32" x="49">
    <animate repeatCount="indefinite" begin="-0.4444444444444444s" dur="1s" keyTimes="0;1" values="1;0" attributeName="opacity"></animate>
  </rect>
</g><g transform="rotate(200 50 50)">
  <rect fill="#9c21c8" height="4" width="2" ry="0.52" rx="0.52" y="32" x="49">
    <animate repeatCount="indefinite" begin="-0.3333333333333333s" dur="1s" keyTimes="0;1" values="1;0" attributeName="opacity"></animate>
  </rect>
</g><g transform="rotate(240 50 50)">
  <rect fill="#9c21c8" height="4" width="2" ry="0.52" rx="0.52" y="32" x="49">
    <animate repeatCount="indefinite" begin="-0.2222222222222222s" dur="1s" keyTimes="0;1" values="1;0" attributeName="opacity"></animate>
  </rect>
</g><g transform="rotate(280 50 50)">
  <rect fill="#9c21c8" height="4" width="2" ry="0.52" rx="0.52" y="32" x="49">
    <animate repeatCount="indefinite" begin="-0.1111111111111111s" dur="1s" keyTimes="0;1" values="1;0" attributeName="opacity"></animate>
  </rect>
</g><g transform="rotate(320 50 50)">
  <rect fill="#9c21c8" height="4" width="2" ry="0.52" rx="0.52" y="32" x="49">
    <animate repeatCount="indefinite" begin="0s" dur="1s" keyTimes="0;1" values="1;0" attributeName="opacity"></animate>
  </rect>
</g><g></g></g><!-- [ldio] generated by https://loading.io --></svg>