<?xml version="1.0" encoding="iso-8859-1"?>
<!-- Uploaded to: SVG Repo, www.svgrepo.com, Generator: SVG Repo Mixer Tools -->
<svg fill="#000000" height="800px" width="800px" version="1.1" id="Layer_1" xmlns="http://www.w3.org/2000/svg" xmlns:xlink="http://www.w3.org/1999/xlink" 
	 viewBox="0 0 508 508" xml:space="preserve">
<g>
	<g>
		<path d="M406.95,266.9c-16.7-6-34.1-11.1-51.7-15.2c-6.6-1.5-13.4,1.9-16.1,8.2l-42.5,99l-9.7-38.7l16.5-16.6
			c5.5-5.5,5.5-14.4,0-20l-39.4-39.2c-5.5-5.5-14.4-5.5-20,0l-39.5,39.5c-5.5,5.5-5.5,14.4,0,20l16.5,16.5l-9.9,38.1l-42.3-98.4
			c-2.7-6.3-9.5-9.7-16.1-8.2c-17.6,4.1-35,9.2-51.6,15.2c-24.4,8.8-40.8,31.9-40.8,57.5v169.3c0,7.8,6.3,14.1,14.1,14.1h179.6h0.1
			h179.4c7.8,0,14.1-6.3,14.1-14.1V324.5C447.75,298.9,431.35,275.8,406.95,266.9z M254.05,274.3l19.5,19.5l-8.1,8.1h-22.9l-8.1-8.1
			L254.05,274.3z M88.65,479.7v-29.5h28.2c7.8,0,14.1-6.3,14.1-14.1c0-7.8-6.3-14.1-14.1-14.1h-28.2v-28.2h56.4
			c7.8,0,14.1-6.3,14.1-14.1c0-7.8-6.3-14.1-14.1-14.1h-56.4v-41.1c0-13.7,8.9-26.2,22.1-31c12-4.3,24.4-8.1,37-11.4l84.9,197.6
			H88.65z M254.05,458l-24.6-57.3l18.2-70.6h12.6l17.9,71.7L254.05,458z M419.45,479.7h-144l84.9-197.6c12.6,3.3,25,7.1,37,11.4
			c13.2,4.8,22.1,17.2,22.1,31V479.7z"/>
	</g>
</g>
<g>
	<g>
		<path d="M254.05,0c-55.2,0-100,44.9-100,100c0,55.1,44.8,100,100,100s100-44.9,100-100C354.05,44.8,309.15,0,254.05,0z
			 M254.05,171.7c-39.6,0-71.8-32.2-71.8-71.8s32.2-71.8,71.8-71.8c39.6,0,71.8,32.2,71.8,71.8S293.65,171.7,254.05,171.7z"/>
	</g>
</g>
</svg>